<svg id="visual" viewBox="0 0 900 600" width="900" height="600" xmlns="http://www.w3.org/2000/svg" xmlns:xlink="http://www.w3.org/1999/xlink" version="1.1"><path d="M786 600L780.7 583.3C775.3 566.7 764.7 533.3 759.3 500C754 466.7 754 433.3 768.7 400C783.3 366.7 812.7 333.3 814.3 300C816 266.7 790 233.3 767.5 200C745 166.7 726 133.3 721.5 100C717 66.7 727 33.3 732 16.7L737 0L900 0L900 16.7C900 33.3 900 66.7 900 100C900 133.3 900 166.7 900 200C900 233.3 900 266.7 900 300C900 333.3 900 366.7 900 400C900 433.3 900 466.7 900 500C900 533.3 900 566.7 900 583.3L900 600Z" fill="#AD343E" stroke-linecap="round" stroke-linejoin="miter"></path></svg>